# xmcd
#
# Track frame offsets: 
#        150
#        14126
#        30476
#        50522
#        84291
#        103328
#        128339
#        140400
#        158320
#        178044
#        202879
#        221564
#        235645
#
# Disc length: 3482 seconds
#
# Revision: 0
# Processed by: cddbd v1.5.2PL0 Copyright (c) Steve Scherf et al.
# Submitted via: ExactAudioCopy v0.99pb4
#
DISCID=a00d980d
DTITLE=Bluescraoer - Poisoned Margarita
DYEAR=2009
DGENRE=Blues
TTITLE0=Poisoned Margarita
TTITLE1=I Don't Need No Doctor
TTITLE2=Tramp
TTITLE3=Taking The Long Way Home
TTITLE4=Crazy Dream
TTITLE5=Stormy Monday
TTITLE6=I'm On A Bender
TTITLE7=Right As Rain
TTITLE8=Born Under A Bad Sign
TTITLE9=Bad Love
TTITLE10=Help Me
TTITLE11=Matchbox
TTITLE12=One More Cup Of Coffee
EXTD=
EXTT0=
EXTT1=
EXTT2=
EXTT3=
EXTT4=
EXTT5=
EXTT6=
EXTT7=
EXTT8=
EXTT9=
EXTT10=
EXTT11=
EXTT12=
PLAYORDER=
